<svg xmlns="http://www.w3.org/2000/svg" width="150em" height="150em" viewBox="0 0 100 100" enable-background="new 0 0 100 100" fill="#E64A19"><path d="M65.25 80.753h-4.32l-2.82-45.048h3.09v-4.567h-3.193l-.02-.896c.037-.307.062-.617.062-.934V19.266c0-3.908-2.897-7.13-6.657-7.66v-.553c0-.602-.488-1.09-1.09-1.09-.603 0-1.09.488-1.09 1.09v.552c-3.762.53-6.657 3.753-6.657 7.66V29.31c0 .318.025.63.062.938l-.02.892h-3.194v4.567h3.09l-2.07 45.05h-2.89v4.64h-7.16v4.643h43.44v-4.642H65.25v-4.643zM50.925 21.666c0-1.505 1.22-2.725 2.726-2.725s2.726 1.22 2.726 2.726v3.582h-5.45v-3.582zm-6.8 32.93l.357-7.058h11.525l.47 7.058h-12.35zm0-9.81l.357-7.057h11.525l.47 7.057h-12.35zM84.09 18.423v9.55L59.02 25.71v-5.78l25.07-1.508zM40.978 25.71L15.91 27.972v-9.55l25.067 1.51v5.778z"/></svg>